<svg width="802" height="423" viewBox="0 0 802 423" fill="none" xmlns="http://www.w3.org/2000/svg">
<path d="M140.933 43.5334C132.933 46.4667 126.667 52.2 123.2 59.6667L120 66.7334L120.267 205.8C120.667 332.467 120.8 345.4 122.933 349C126 354.6 131.6 360.067 138 363.4C142.933 366.067 145.733 366.333 182 367L220.533 367.667L222.133 373C229.333 397.8 252.8 417.933 279.067 421.8C312.667 426.733 346 405.667 355.467 373.533L357.467 367H468.533H579.6L581.2 372.6C586.267 389.8 600.8 407.267 616.133 414.867C649.2 431.133 686.267 421.133 706.8 390.467C709.733 386.067 713.067 379.133 714.4 374.867L716.667 367.267L748 366.733C776.933 366.333 779.733 366.067 784.667 363.4C790.933 360.067 796.667 354.6 799.733 349C801.867 345.4 802 334.333 802 226.333V107.667L799.067 98.2C791.6 74.7334 772.133 54.8667 747.867 45.9334L738 42.3334L529.067 41.9334L320.267 41.6667L316.667 44.6C312 48.6 311.733 55.1334 316 59.6667L319.067 63H521.2C652 63 726.267 63.5334 731.733 64.3334C744 66.3334 754.133 71.6667 763.333 81C769.867 87.5334 778.667 101.267 778.667 104.867C778.667 105.267 729.733 105.667 670 105.667H561.333V101.667C561.333 97.2667 557.6 92.7334 553.067 91.6667C551.333 91.2667 512.4 91.1334 466.533 91.2667C386.8 91.6667 382.8 91.8 380.133 94.2C378.667 95.5334 377.067 98.7334 376.533 101.133L375.733 105.667H284C189.467 105.667 185.467 105.933 182.667 111C181.867 112.6 181.333 138.733 181.333 178.733C181.333 241 181.467 244.2 183.867 247.133L186.4 250.333L281.2 250.733L376 251V297.667V344.333H367.333C359.067 344.333 358.667 344.2 357.867 340.6C350.267 306.067 322.533 283 288.667 283C258.8 283 232.4 302.067 222.533 330.6C221.2 334.733 220 339.533 220 341.267V344.333H183.733C163.733 344.333 146.667 343.8 145.867 343.267C143.2 341.533 141.333 336.6 141.333 331.267V326.067L150.533 325.267C161.733 324.333 168.8 321 175.067 313.533C185.467 301.4 184.267 283.4 172.4 272.067C167.333 267.133 160.667 264.6 150.133 263.533L141.333 262.6V166.333C141.333 73.4 141.467 69.8 143.867 66.8667L146.4 63.6667L219.067 63.2667L291.6 63L294.667 59.6667C298.933 55.1334 298.533 48.6 294 44.6L290.533 41.6667H218.267C161.333 41.8 144.933 42.2 140.933 43.5334ZM458 171V229L428.4 229.4L398.667 229.667V171V112.333L428.4 112.6L458 113V171ZM540 171V229.667H510H480V171V112.333H510H540V171ZM278.4 178.6L278 229L240.4 229.4L202.667 229.667V179V128.333H240.667H278.667L278.4 178.6ZM375.733 178.6L375.333 229L337.733 229.4L300 229.667V179V128.333H338H376L375.733 178.6ZM637.333 179V229.667H599.333H561.333V179V128.333H599.333H637.333V179ZM781.333 179V229.667H745.733C711.067 229.667 710.133 229.8 707.067 232.6C703.2 236.2 703.067 242.867 706.533 247.133L709.067 250.333L745.2 250.733L781.333 251.133V256.867V262.6L767.2 263.4C754.933 264.067 752.267 264.733 746.267 268.067C722 281.667 727.6 318.333 754.8 324.2C758.4 325 766 325.667 771.333 325.667H781.333V331.133C781.333 336.6 779.467 341.533 776.8 343.267C776 343.8 762.4 344.333 746.533 344.333H717.6L716.8 338.333C716.267 335 713.467 327.667 710.667 321.933C692.933 286.733 651.733 273.133 616 290.733C599.867 298.6 583.6 319.533 580 337L578.533 344.333H569.867H561.333V297.667V251H621.2C678.8 251 681.067 250.867 684.4 248.333C688.8 244.867 689.867 239.933 687.467 235.133C684.8 230.2 683.2 229.667 669.867 229.667H658.667V179V128.333H720H781.333V179ZM540 296.333V341.667H469.333H398.667V296.333V251H469.333H540V296.333ZM157.733 287.933C161.067 291.8 161.2 297.667 157.867 300.867C156.533 302.333 153.333 303 148.533 303H141.333V294.333V285.667H148.4C153.6 285.667 156.133 286.333 157.733 287.933ZM781.333 294.333V303H768.8C757.2 303 756 302.733 754.133 300.067C751.2 295.933 751.467 291.533 754.667 288.333C756.933 286.067 759.067 285.667 769.333 285.667H781.333V294.333ZM308.533 308.733C330.133 318.6 341.733 343 335.333 365.133C324.933 401.267 281.2 413.133 254.667 386.733C234.133 366.333 236.8 331.4 260.267 314.067C274.267 303.933 293.2 301.8 308.533 308.733ZM668.4 309.4C678.667 314.2 687.333 322.733 691.867 332.333C694.933 338.733 695.333 341.4 695.333 353C695.333 365.133 694.933 367 691.333 374.067C677.067 402.333 640 409.667 616.4 389C611.733 384.867 608 379.933 605.067 373.933C601.067 365.933 600.667 363.933 600.667 353C600.667 342.6 601.2 339.933 604.4 333C610.667 319.533 622.933 309.267 636.933 305.667C645.733 303.533 659.333 305.133 668.4 309.4Z" fill="white"/>
<path d="M278.8 323.533C272.533 325.8 264.4 333 261.467 338.733C253.733 354.2 259.733 372.733 275.2 380.6C282.267 384.2 294.667 384.467 301.333 381.133C313.867 374.733 321.067 362.2 319.6 349.4C317.2 329.8 296.933 317 278.8 323.533ZM292.667 344.333C300 347.133 299.6 359.267 292.133 361.267C285.2 363.133 280 359.667 280 353.133C280 348.333 280.933 346.733 284.667 344.6C288 342.733 288.4 342.733 292.667 344.333Z" fill="white"/>
<path d="M640 322.867C626.133 327.133 617.467 338.733 617.333 353.133C617.2 378.2 646.8 392.6 666.933 377.267C680.933 366.467 682.933 344.6 670.933 331.8C663.467 323.8 649.867 319.933 640 322.867ZM653.867 345.8C660.8 351.267 657.2 361.667 648.4 361.667C635.467 361.667 635.867 343.8 648.8 343.133C649.6 343 651.867 344.2 653.867 345.8Z" fill="white"/>
<rect x="258" y="177" width="200" height="20" rx="10" fill="#EE9F2E"/>
<rect x="320" y="118" width="200" height="20" rx="10" fill="#EE9F2E"/>
<rect x="129" width="258" height="20" rx="10" fill="#EE9F2E"/>
<rect y="288" width="258" height="20" rx="10" fill="#EE9F2E"/>
</svg>
