<svg width="913" height="420" viewBox="0 0 913 420" fill="none" xmlns="http://www.w3.org/2000/svg">
<path d="M251.933 40.5334C243.933 43.4667 237.667 49.2001 234.2 56.6667L231 63.7334L231.267 202.8C231.667 329.467 231.8 342.4 233.933 346C237 351.6 242.6 357.067 249 360.4C253.933 363.067 256.733 363.333 293 364L331.533 364.667L333.133 370C340.333 394.8 363.8 414.933 390.067 418.8C423.667 423.733 457 402.667 466.467 370.533L468.467 364H579.533H690.6L692.2 369.6C697.267 386.8 711.8 404.267 727.133 411.867C760.2 428.133 797.267 418.133 817.8 387.467C820.733 383.067 824.067 376.133 825.4 371.867L827.667 364.267L859 363.733C887.933 363.333 890.733 363.067 895.667 360.4C901.933 357.067 907.667 351.6 910.733 346C912.867 342.4 913 331.333 913 223.333V104.667L910.067 95.2001C902.6 71.7334 883.133 51.8667 858.867 42.9334L849 39.3334L640.067 38.9334L431.267 38.6667L427.667 41.6001C423 45.6001 422.733 52.1334 427 56.6667L430.067 60.0001H632.2C763 60.0001 837.267 60.5334 842.733 61.3334C855 63.3334 865.133 68.6667 874.333 78.0001C880.867 84.5334 889.667 98.2667 889.667 101.867C889.667 102.267 840.733 102.667 781 102.667H672.333V98.6667C672.333 94.2667 668.6 89.7334 664.067 88.6667C662.333 88.2667 623.4 88.1334 577.533 88.2667C497.8 88.6667 493.8 88.8001 491.133 91.2001C489.667 92.5334 488.067 95.7334 487.533 98.1334L486.733 102.667H395C300.467 102.667 296.467 102.933 293.667 108C292.867 109.6 292.333 135.733 292.333 175.733C292.333 238 292.467 241.2 294.867 244.133L297.4 247.333L392.2 247.733L487 248V294.667V341.333H478.333C470.067 341.333 469.667 341.2 468.867 337.6C461.267 303.067 433.533 280 399.667 280C369.8 280 343.4 299.067 333.533 327.6C332.2 331.733 331 336.533 331 338.267V341.333H294.733C274.733 341.333 257.667 340.8 256.867 340.267C254.2 338.533 252.333 333.6 252.333 328.267V323.067L261.533 322.267C272.733 321.333 279.8 318 286.067 310.533C296.467 298.4 295.267 280.4 283.4 269.067C278.333 264.133 271.667 261.6 261.133 260.533L252.333 259.6V163.333C252.333 70.4001 252.467 66.8001 254.867 63.8667L257.4 60.6667L330.067 60.2667L402.6 60.0001L405.667 56.6667C409.933 52.1334 409.533 45.6001 405 41.6001L401.533 38.6667H329.267C272.333 38.8001 255.933 39.2001 251.933 40.5334ZM569 168V226L539.4 226.4L509.667 226.667V168V109.333L539.4 109.6L569 110V168ZM651 168V226.667H621H591V168V109.333H621H651V168ZM389.4 175.6L389 226L351.4 226.4L313.667 226.667V176V125.333H351.667H389.667L389.4 175.6ZM486.733 175.6L486.333 226L448.733 226.4L411 226.667V176V125.333H449H487L486.733 175.6ZM748.333 176V226.667H710.333H672.333V176V125.333H710.333H748.333V176ZM892.333 176V226.667H856.733C822.067 226.667 821.133 226.8 818.067 229.6C814.2 233.2 814.067 239.867 817.533 244.133L820.067 247.333L856.2 247.733L892.333 248.133V253.867V259.6L878.2 260.4C865.933 261.067 863.267 261.733 857.267 265.067C833 278.667 838.6 315.333 865.8 321.2C869.4 322 877 322.667 882.333 322.667H892.333V328.133C892.333 333.6 890.467 338.533 887.8 340.267C887 340.8 873.4 341.333 857.533 341.333H828.6L827.8 335.333C827.267 332 824.467 324.667 821.667 318.933C803.933 283.733 762.733 270.133 727 287.733C710.867 295.6 694.6 316.533 691 334L689.533 341.333H680.867H672.333V294.667V248H732.2C789.8 248 792.067 247.867 795.4 245.333C799.8 241.867 800.867 236.933 798.467 232.133C795.8 227.2 794.2 226.667 780.867 226.667H769.667V176V125.333H831H892.333V176ZM651 293.333V338.667H580.333H509.667V293.333V248H580.333H651V293.333ZM268.733 284.933C272.067 288.8 272.2 294.667 268.867 297.867C267.533 299.333 264.333 300 259.533 300H252.333V291.333V282.667H259.4C264.6 282.667 267.133 283.333 268.733 284.933ZM892.333 291.333V300H879.8C868.2 300 867 299.733 865.133 297.067C862.2 292.933 862.467 288.533 865.667 285.333C867.933 283.067 870.067 282.667 880.333 282.667H892.333V291.333ZM419.533 305.733C441.133 315.6 452.733 340 446.333 362.133C435.933 398.267 392.2 410.133 365.667 383.733C345.133 363.333 347.8 328.4 371.267 311.067C385.267 300.933 404.2 298.8 419.533 305.733ZM779.4 306.4C789.667 311.2 798.333 319.733 802.867 329.333C805.933 335.733 806.333 338.4 806.333 350C806.333 362.133 805.933 364 802.333 371.067C788.067 399.333 751 406.667 727.4 386C722.733 381.867 719 376.933 716.067 370.933C712.067 362.933 711.667 360.933 711.667 350C711.667 339.6 712.2 336.933 715.4 330C721.667 316.533 733.933 306.267 747.933 302.667C756.733 300.533 770.333 302.133 779.4 306.4Z" fill="white"/>
<path d="M389.8 320.533C383.533 322.8 375.4 330 372.467 335.733C364.733 351.2 370.733 369.733 386.2 377.6C393.267 381.2 405.667 381.467 412.333 378.133C424.867 371.733 432.067 359.2 430.6 346.4C428.2 326.8 407.933 314 389.8 320.533ZM403.667 341.333C411 344.133 410.6 356.267 403.133 358.267C396.2 360.133 391 356.667 391 350.133C391 345.333 391.933 343.733 395.667 341.6C399 339.733 399.4 339.733 403.667 341.333Z" fill="white"/>
<path d="M751 319.867C737.133 324.133 728.467 335.733 728.333 350.133C728.2 375.2 757.8 389.6 777.933 374.267C791.933 363.467 793.933 341.6 781.933 328.8C774.467 320.8 760.867 316.933 751 319.867ZM764.867 342.8C771.8 348.267 768.2 358.667 759.4 358.667C746.467 358.667 746.867 340.8 759.8 340.133C760.6 340 762.867 341.2 764.867 342.8Z" fill="white"/>
<rect x="169" y="187" width="200" height="20" rx="10" fill="#EE9F2E"/>
<rect x="269" y="133" width="200" height="20" rx="10" fill="#EE9F2E"/>
<rect x="83" width="258" height="20" rx="10" fill="#EE9F2E"/>
<rect y="282" width="169" height="20" rx="10" fill="#EE9F2E"/>
</svg>
