<svg width="844" height="438" viewBox="0 0 844 438" fill="none" xmlns="http://www.w3.org/2000/svg">
<path d="M20.9333 58.5334C12.9333 61.4667 6.66667 67.2 3.2 74.6667L0 81.7334L0.266667 220.8C0.666667 347.467 0.8 360.4 2.93333 364C6 369.6 11.6 375.067 18 378.4C22.9333 381.067 25.7333 381.333 62 382L100.533 382.667L102.133 388C109.333 412.8 132.8 432.933 159.067 436.8C192.667 441.733 226 420.667 235.467 388.533L237.467 382H348.533H459.6L461.2 387.6C466.267 404.8 480.8 422.267 496.133 429.867C529.2 446.133 566.267 436.133 586.8 405.467C589.733 401.067 593.067 394.133 594.4 389.867L596.667 382.267L628 381.733C656.933 381.333 659.733 381.067 664.667 378.4C670.933 375.067 676.667 369.6 679.733 364C681.867 360.4 682 349.333 682 241.333V122.667L679.067 113.2C671.6 89.7334 652.133 69.8667 627.867 60.9334L618 57.3334L409.067 56.9334L200.267 56.6667L196.667 59.6C192 63.6 191.733 70.1334 196 74.6667L199.067 78H401.2C532 78 606.267 78.5334 611.733 79.3334C624 81.3334 634.133 86.6667 643.333 96C649.867 102.533 658.667 116.267 658.667 119.867C658.667 120.267 609.733 120.667 550 120.667H441.333V116.667C441.333 112.267 437.6 107.733 433.067 106.667C431.333 106.267 392.4 106.133 346.533 106.267C266.8 106.667 262.8 106.8 260.133 109.2C258.667 110.533 257.067 113.733 256.533 116.133L255.733 120.667H164C69.4667 120.667 65.4667 120.933 62.6667 126C61.8667 127.6 61.3333 153.733 61.3333 193.733C61.3333 256 61.4667 259.2 63.8667 262.133L66.4 265.333L161.2 265.733L256 266V312.667V359.333H247.333C239.067 359.333 238.667 359.2 237.867 355.6C230.267 321.067 202.533 298 168.667 298C138.8 298 112.4 317.067 102.533 345.6C101.2 349.733 100 354.533 100 356.267V359.333H63.7333C43.7333 359.333 26.6667 358.8 25.8667 358.267C23.2 356.533 21.3333 351.6 21.3333 346.267V341.067L30.5333 340.267C41.7333 339.333 48.8 336 55.0667 328.533C65.4667 316.4 64.2667 298.4 52.4 287.067C47.3333 282.133 40.6667 279.6 30.1333 278.533L21.3333 277.6V181.333C21.3333 88.4 21.4667 84.8 23.8667 81.8667L26.4 78.6667L99.0667 78.2667L171.6 78L174.667 74.6667C178.933 70.1334 178.533 63.6 174 59.6L170.533 56.6667H98.2667C41.3333 56.8 24.9333 57.2 20.9333 58.5334ZM338 186V244L308.4 244.4L278.667 244.667V186V127.333L308.4 127.6L338 128V186ZM420 186V244.667H390H360V186V127.333H390H420V186ZM158.4 193.6L158 244L120.4 244.4L82.6667 244.667V194V143.333H120.667H158.667L158.4 193.6ZM255.733 193.6L255.333 244L217.733 244.4L180 244.667V194V143.333H218H256L255.733 193.6ZM517.333 194V244.667H479.333H441.333V194V143.333H479.333H517.333V194ZM661.333 194V244.667H625.733C591.067 244.667 590.133 244.8 587.067 247.6C583.2 251.2 583.067 257.867 586.533 262.133L589.067 265.333L625.2 265.733L661.333 266.133V271.867V277.6L647.2 278.4C634.933 279.067 632.267 279.733 626.267 283.067C602 296.667 607.6 333.333 634.8 339.2C638.4 340 646 340.667 651.333 340.667H661.333V346.133C661.333 351.6 659.467 356.533 656.8 358.267C656 358.8 642.4 359.333 626.533 359.333H597.6L596.8 353.333C596.267 350 593.467 342.667 590.667 336.933C572.933 301.733 531.733 288.133 496 305.733C479.867 313.6 463.6 334.533 460 352L458.533 359.333H449.867H441.333V312.667V266H501.2C558.8 266 561.067 265.867 564.4 263.333C568.8 259.867 569.867 254.933 567.467 250.133C564.8 245.2 563.2 244.667 549.867 244.667H538.667V194V143.333H600H661.333V194ZM420 311.333V356.667H349.333H278.667V311.333V266H349.333H420V311.333ZM37.7333 302.933C41.0667 306.8 41.2 312.667 37.8667 315.867C36.5333 317.333 33.3333 318 28.5333 318H21.3333V309.333V300.667H28.4C33.6 300.667 36.1333 301.333 37.7333 302.933ZM661.333 309.333V318H648.8C637.2 318 636 317.733 634.133 315.067C631.2 310.933 631.467 306.533 634.667 303.333C636.933 301.067 639.067 300.667 649.333 300.667H661.333V309.333ZM188.533 323.733C210.133 333.6 221.733 358 215.333 380.133C204.933 416.267 161.2 428.133 134.667 401.733C114.133 381.333 116.8 346.4 140.267 329.067C154.267 318.933 173.2 316.8 188.533 323.733ZM548.4 324.4C558.667 329.2 567.333 337.733 571.867 347.333C574.933 353.733 575.333 356.4 575.333 368C575.333 380.133 574.933 382 571.333 389.067C557.067 417.333 520 424.667 496.4 404C491.733 399.867 488 394.933 485.067 388.933C481.067 380.933 480.667 378.933 480.667 368C480.667 357.6 481.2 354.933 484.4 348C490.667 334.533 502.933 324.267 516.933 320.667C525.733 318.533 539.333 320.133 548.4 324.4Z" fill="white"/>
<path d="M158.8 338.533C152.533 340.8 144.4 348 141.467 353.733C133.733 369.2 139.733 387.733 155.2 395.6C162.267 399.2 174.667 399.467 181.333 396.133C193.867 389.733 201.067 377.2 199.6 364.4C197.2 344.8 176.933 332 158.8 338.533ZM172.667 359.333C180 362.133 179.6 374.267 172.133 376.267C165.2 378.133 160 374.667 160 368.133C160 363.333 160.933 361.733 164.667 359.6C168 357.733 168.4 357.733 172.667 359.333Z" fill="white"/>
<path d="M520 337.867C506.133 342.133 497.467 353.733 497.333 368.133C497.2 393.2 526.8 407.6 546.933 392.267C560.933 381.467 562.933 359.6 550.933 346.8C543.467 338.8 529.867 334.933 520 337.867ZM533.867 360.8C540.8 366.267 537.2 376.667 528.4 376.667C515.467 376.667 515.867 358.8 528.8 358.133C529.6 358 531.867 359.2 533.867 360.8Z" fill="white"/>
<rect x="559" y="177" width="200" height="20" rx="10" fill="#EE9F2E"/>
<rect x="644" y="110" width="200" height="20" rx="10" fill="#EE9F2E"/>
<rect x="370" width="258" height="20" rx="10" fill="#EE9F2E"/>
<rect x="270" y="285" width="258" height="20" rx="10" fill="#EE9F2E"/>
</svg>
