<svg width="714" height="433" viewBox="0 0 714 433" fill="none" xmlns="http://www.w3.org/2000/svg">
<path d="M20.9333 53.5334C12.9333 56.4667 6.66667 62.2 3.2 69.6667L0 76.7334L0.266667 215.8C0.666667 342.467 0.8 355.4 2.93333 359C6 364.6 11.6 370.067 18 373.4C22.9333 376.067 25.7333 376.333 62 377L100.533 377.667L102.133 383C109.333 407.8 132.8 427.933 159.067 431.8C192.667 436.733 226 415.667 235.467 383.533L237.467 377H348.533H459.6L461.2 382.6C466.267 399.8 480.8 417.267 496.133 424.867C529.2 441.133 566.267 431.133 586.8 400.467C589.733 396.067 593.067 389.133 594.4 384.867L596.667 377.267L628 376.733C656.933 376.333 659.733 376.067 664.667 373.4C670.933 370.067 676.667 364.6 679.733 359C681.867 355.4 682 344.333 682 236.333V117.667L679.067 108.2C671.6 84.7334 652.133 64.8667 627.867 55.9334L618 52.3334L409.067 51.9334L200.267 51.6667L196.667 54.6C192 58.6 191.733 65.1334 196 69.6667L199.067 73H401.2C532 73 606.267 73.5334 611.733 74.3334C624 76.3334 634.133 81.6667 643.333 91C649.867 97.5334 658.667 111.267 658.667 114.867C658.667 115.267 609.733 115.667 550 115.667H441.333V111.667C441.333 107.267 437.6 102.733 433.067 101.667C431.333 101.267 392.4 101.133 346.533 101.267C266.8 101.667 262.8 101.8 260.133 104.2C258.667 105.533 257.067 108.733 256.533 111.133L255.733 115.667H164C69.4667 115.667 65.4667 115.933 62.6667 121C61.8667 122.6 61.3333 148.733 61.3333 188.733C61.3333 251 61.4667 254.2 63.8667 257.133L66.4 260.333L161.2 260.733L256 261V307.667V354.333H247.333C239.067 354.333 238.667 354.2 237.867 350.6C230.267 316.067 202.533 293 168.667 293C138.8 293 112.4 312.067 102.533 340.6C101.2 344.733 100 349.533 100 351.267V354.333H63.7333C43.7333 354.333 26.6667 353.8 25.8667 353.267C23.2 351.533 21.3333 346.6 21.3333 341.267V336.067L30.5333 335.267C41.7333 334.333 48.8 331 55.0667 323.533C65.4667 311.4 64.2667 293.4 52.4 282.067C47.3333 277.133 40.6667 274.6 30.1333 273.533L21.3333 272.6V176.333C21.3333 83.4 21.4667 79.8 23.8667 76.8667L26.4 73.6667L99.0667 73.2667L171.6 73L174.667 69.6667C178.933 65.1334 178.533 58.6 174 54.6L170.533 51.6667H98.2667C41.3333 51.8 24.9333 52.2 20.9333 53.5334ZM338 181V239L308.4 239.4L278.667 239.667V181V122.333L308.4 122.6L338 123V181ZM420 181V239.667H390H360V181V122.333H390H420V181ZM158.4 188.6L158 239L120.4 239.4L82.6667 239.667V189V138.333H120.667H158.667L158.4 188.6ZM255.733 188.6L255.333 239L217.733 239.4L180 239.667V189V138.333H218H256L255.733 188.6ZM517.333 189V239.667H479.333H441.333V189V138.333H479.333H517.333V189ZM661.333 189V239.667H625.733C591.067 239.667 590.133 239.8 587.067 242.6C583.2 246.2 583.067 252.867 586.533 257.133L589.067 260.333L625.2 260.733L661.333 261.133V266.867V272.6L647.2 273.4C634.933 274.067 632.267 274.733 626.267 278.067C602 291.667 607.6 328.333 634.8 334.2C638.4 335 646 335.667 651.333 335.667H661.333V341.133C661.333 346.6 659.467 351.533 656.8 353.267C656 353.8 642.4 354.333 626.533 354.333H597.6L596.8 348.333C596.267 345 593.467 337.667 590.667 331.933C572.933 296.733 531.733 283.133 496 300.733C479.867 308.6 463.6 329.533 460 347L458.533 354.333H449.867H441.333V307.667V261H501.2C558.8 261 561.067 260.867 564.4 258.333C568.8 254.867 569.867 249.933 567.467 245.133C564.8 240.2 563.2 239.667 549.867 239.667H538.667V189V138.333H600H661.333V189ZM420 306.333V351.667H349.333H278.667V306.333V261H349.333H420V306.333ZM37.7333 297.933C41.0667 301.8 41.2 307.667 37.8667 310.867C36.5333 312.333 33.3333 313 28.5333 313H21.3333V304.333V295.667H28.4C33.6 295.667 36.1333 296.333 37.7333 297.933ZM661.333 304.333V313H648.8C637.2 313 636 312.733 634.133 310.067C631.2 305.933 631.467 301.533 634.667 298.333C636.933 296.067 639.067 295.667 649.333 295.667H661.333V304.333ZM188.533 318.733C210.133 328.6 221.733 353 215.333 375.133C204.933 411.267 161.2 423.133 134.667 396.733C114.133 376.333 116.8 341.4 140.267 324.067C154.267 313.933 173.2 311.8 188.533 318.733ZM548.4 319.4C558.667 324.2 567.333 332.733 571.867 342.333C574.933 348.733 575.333 351.4 575.333 363C575.333 375.133 574.933 377 571.333 384.067C557.067 412.333 520 419.667 496.4 399C491.733 394.867 488 389.933 485.067 383.933C481.067 375.933 480.667 373.933 480.667 363C480.667 352.6 481.2 349.933 484.4 343C490.667 329.533 502.933 319.267 516.933 315.667C525.733 313.533 539.333 315.133 548.4 319.4Z" fill="white"/>
<path d="M158.8 333.533C152.533 335.8 144.4 343 141.467 348.733C133.733 364.2 139.733 382.733 155.2 390.6C162.267 394.2 174.667 394.467 181.333 391.133C193.867 384.733 201.067 372.2 199.6 359.4C197.2 339.8 176.933 327 158.8 333.533ZM172.667 354.333C180 357.133 179.6 369.267 172.133 371.267C165.2 373.133 160 369.667 160 363.133C160 358.333 160.933 356.733 164.667 354.6C168 352.733 168.4 352.733 172.667 354.333Z" fill="white"/>
<path d="M520 332.867C506.133 337.133 497.467 348.733 497.333 363.133C497.2 388.2 526.8 402.6 546.933 387.267C560.933 376.467 562.933 354.6 550.933 341.8C543.467 333.8 529.867 329.933 520 332.867ZM533.867 355.8C540.8 361.267 537.2 371.667 528.4 371.667C515.467 371.667 515.867 353.8 528.8 353.133C529.6 353 531.867 354.2 533.867 355.8Z" fill="white"/>
<rect x="341" y="190" width="200" height="20" rx="10" fill="#EE9F2E"/>
<rect x="185" width="258" height="20" rx="10" fill="#EE9F2E"/>
<rect x="71" y="290" width="258" height="20" rx="10" fill="#EE9F2E"/>
<rect x="456" y="141" width="258" height="20" rx="10" fill="#EE9F2E"/>
</svg>
