<svg width="1000" height="520" viewBox="0 0 1000 520" fill="none" xmlns="http://www.w3.org/2000/svg">
<g clip-path="url(#clip0_5_32)">
<path d="M146.347 129.596C138.63 133.209 132.882 139.462 130.073 147.201L127.496 154.517L139.774 293.041C151.115 419.2 152.365 432.073 154.801 435.475C158.34 440.79 164.391 445.752 171.055 448.52C176.201 450.751 179.013 450.774 215.202 448.306L253.649 445.641L255.703 450.816C265.019 474.902 290.137 492.933 316.639 494.516C350.54 496.528 381.929 472.661 388.584 439.83L390.013 433.148L500.664 423.554L611.316 413.96L613.393 419.401C619.927 436.099 635.915 452.245 651.847 458.492C686.196 471.841 722.26 458.677 740.067 426.351C742.61 421.714 745.332 414.519 746.291 410.153L747.893 402.385L779.063 399.147C807.854 396.249 810.62 395.742 815.305 392.659C821.26 388.797 826.5 382.855 829.071 377.011C830.886 373.24 830.062 362.204 820.733 254.607L810.482 136.384L806.742 127.206C797.276 104.472 776.166 86.3616 751.219 79.5579L741.078 76.8237L532.891 94.4735L324.848 112.245L321.515 115.478C317.212 119.866 317.51 126.398 322.153 130.546L325.496 133.602L526.873 116.141C657.185 104.842 731.22 98.958 736.735 99.2828C749.129 100.216 759.685 104.654 769.657 113.157C776.73 119.102 786.683 132.024 786.994 135.61C787.029 136.009 738.313 140.634 678.803 145.794L570.542 155.181L570.197 151.196C569.817 146.813 565.706 142.619 561.097 141.948C559.336 141.699 520.537 144.929 474.853 149.024C395.452 156.31 391.479 156.789 389.029 159.41C387.683 160.865 386.366 164.191 386.042 166.628L385.636 171.214L294.246 179.138C200.066 187.304 196.104 187.915 193.752 193.205C193.093 194.868 194.819 220.95 198.275 260.8C203.653 322.834 204.063 326.011 206.707 328.726L209.507 331.695L303.988 323.904L398.456 315.981L402.487 362.473L406.519 408.966L397.884 409.714C389.649 410.428 389.239 410.33 388.131 406.813C377.576 373.065 347.954 352.48 314.214 355.406C284.459 357.986 259.804 379.261 252.439 408.54C251.468 412.773 250.687 417.659 250.837 419.386L251.102 422.441L214.971 425.574C195.045 427.302 177.997 428.245 177.153 427.782C174.347 426.286 172.061 421.532 171.6 416.219L171.151 411.038L180.248 409.447C191.325 407.549 198.078 403.618 203.676 395.638C212.989 382.652 210.238 364.822 197.437 354.557C191.963 350.079 185.103 348.131 174.517 347.979L165.669 347.809L157.353 251.902C149.325 159.316 149.147 155.718 151.285 152.588L153.532 149.182L225.893 142.506L298.132 135.975L300.899 132.389C304.758 127.504 303.795 121.029 298.933 117.436L295.226 114.813L223.23 121.056C166.521 126.107 150.217 127.922 146.347 129.596ZM473.239 229.197L478.249 286.98L448.795 289.935L419.195 292.769L414.128 234.322L409.06 175.875L438.705 173.572L468.229 171.413L473.239 229.197ZM554.933 222.113L560 280.561L530.113 283.152L500.225 285.744L495.157 227.296L490.089 168.849L519.977 166.257L549.865 163.666L554.933 222.113ZM294.967 252.283L298.922 302.529L261.497 306.175L223.928 309.701L219.551 259.223L215.175 208.746L253.032 205.463L290.89 202.181L294.967 252.283ZM391.936 243.875L395.892 294.121L358.467 297.767L320.898 301.293L316.521 250.815L312.144 200.338L350.002 197.055L387.86 193.773L391.936 243.875ZM652.593 221.675L656.97 272.153L619.112 275.435L581.254 278.718L576.877 228.24L572.5 177.763L610.358 174.481L648.216 171.198L652.593 221.675ZM796.055 209.236L800.432 259.713L764.965 262.789C730.428 265.783 729.509 265.997 726.696 269.051C723.155 272.972 723.598 279.625 727.42 283.576L730.22 286.546L766.253 283.823L802.286 281.1L802.781 286.812L803.277 292.524L789.265 294.542C777.102 296.265 774.503 297.16 768.813 300.999C745.812 316.645 754.558 352.69 782.164 356.185C785.819 356.672 793.448 356.679 798.762 356.218L808.724 355.355L809.197 360.801C809.669 366.247 808.235 371.323 805.728 373.28C804.977 373.881 791.474 375.587 775.667 376.958L746.842 379.457L745.527 373.549C744.707 370.274 741.284 363.21 737.999 357.74C717.292 324.203 675.071 314.213 640.991 334.834C625.598 344.065 611.2 366.325 609.123 384.037L608.295 391.47L599.661 392.219L591.159 392.956L587.128 346.464L583.097 299.971L642.74 294.8C700.124 289.824 702.371 289.496 705.473 286.684C709.557 282.85 710.194 277.843 707.388 273.268C704.305 268.584 702.665 268.191 689.382 269.342L678.223 270.31L673.847 219.833L669.47 169.355L730.574 164.057L791.678 158.759L796.055 209.236ZM565.759 346.978L569.675 392.142L499.273 398.246L428.87 404.351L424.954 359.187L421.038 314.023L491.441 307.919L561.843 301.814L565.759 346.978ZM184.196 371.631C187.851 375.195 188.49 381.028 185.446 384.504C184.244 386.081 181.114 387.021 176.332 387.436L169.159 388.058L168.41 379.424L167.661 370.789L174.702 370.179C179.882 369.73 182.464 370.175 184.196 371.631ZM806.018 324.138L806.766 332.773L794.28 333.855C782.723 334.857 781.505 334.695 779.415 332.2C776.135 328.335 776.021 323.929 778.932 320.464C780.995 318.01 783.086 317.428 793.314 316.541L805.269 315.504L806.018 324.138ZM336.229 379.327C358.601 387.29 372.265 410.597 367.801 433.201C360.561 470.097 318.016 485.697 289.302 461.688C267.083 443.138 266.722 408.105 288.603 388.809C301.676 377.505 320.354 373.744 336.229 379.327ZM694.808 348.904C705.451 352.8 714.822 360.552 720.168 369.725C723.776 375.836 724.405 378.458 725.407 390.015C726.455 402.103 726.218 403.997 723.242 411.348C711.47 440.742 675.176 451.249 649.879 432.699C644.872 428.984 640.727 424.392 637.286 418.667C632.61 411.043 632.039 409.085 631.094 398.192C630.196 387.831 630.497 385.128 633.086 377.945C638.166 363.987 649.5 352.699 663.137 347.903C671.719 345.018 685.407 345.437 694.808 348.904Z" fill="white"/>
<path d="M307.885 396.64C301.838 399.439 294.357 407.315 291.93 413.28C285.561 429.357 293.14 447.303 309.228 453.804C316.58 456.78 328.956 455.975 335.31 452.078C347.244 444.619 353.334 431.511 350.767 418.885C346.683 399.566 325.386 388.564 307.885 396.64ZM323.497 416.164C331.045 418.32 331.694 430.443 324.428 433.08C317.682 435.539 312.202 432.534 311.638 426.025C311.223 421.243 312.015 419.569 315.55 417.121C318.709 414.973 319.108 414.939 323.497 416.164Z" fill="white"/>
<path d="M667.678 364.774C654.231 370.222 646.599 382.528 647.71 396.885C649.743 421.87 680.476 433.659 699.209 416.644C712.224 404.675 712.328 382.717 699.267 371.002C691.137 363.677 677.254 360.999 667.678 364.774ZM683.473 386.424C690.853 391.271 688.165 401.943 679.398 402.703C666.513 403.82 665.368 385.986 678.195 384.205C678.981 384.003 681.343 385.002 683.473 386.424Z" fill="white"/>
<rect x="295.36" y="276.774" width="200" height="20" rx="10" fill="#EE9F2E"/>
<rect x="430.36" y="174.774" width="200" height="20" rx="10" fill="#EE9F2E"/>
<rect x="-22.64" y="346.774" width="258" height="20" rx="10" fill="#EE9F2E"/>
<rect x="75.36" y="74.7742" width="258" height="20" rx="10" fill="#EE9F2E"/>
</g>
<defs>
<clipPath id="clip0_5_32">
<rect width="964" height="438" fill="white" transform="translate(0.883789 83.4553) rotate(-4.95557)"/>
</clipPath>
</defs>
</svg>
