<svg width="980" height="474" viewBox="0 0 980 474" fill="none" xmlns="http://www.w3.org/2000/svg">
<g clip-path="url(#clip0_5_13)">
<path d="M138.613 102.967C130.839 106.455 124.991 112.615 122.058 120.307L119.363 127.581L129.405 266.285C138.708 392.61 139.75 405.502 142.131 408.943C145.584 414.314 151.554 419.373 158.173 422.248C163.281 424.562 166.093 424.631 202.317 422.746L240.802 420.703L242.773 425.91C251.698 450.143 276.522 468.577 302.996 470.587C336.859 473.147 368.629 449.789 375.814 417.07L377.35 410.412L488.142 402.604L598.933 394.797L600.923 400.27C607.186 417.072 622.912 433.473 638.741 439.977C672.87 453.879 709.142 441.298 727.468 409.264C730.085 404.668 732.923 397.518 733.953 393.168L735.68 385.427L766.898 382.693C795.732 380.26 798.506 379.797 803.24 376.79C809.257 373.024 814.591 367.168 817.257 361.367C819.132 357.626 818.487 346.577 810.895 238.844L802.553 120.471L798.962 111.234C789.864 88.3501 769.049 69.9011 744.214 62.6957L734.119 59.7982L525.674 74.0864L317.372 88.4983L313.987 91.6774C309.613 95.9956 309.806 102.532 314.381 106.754L317.675 109.863L519.308 95.654C649.784 86.4592 723.905 81.7706 729.414 82.1843C741.791 83.317 752.274 87.9248 762.107 96.5884C769.084 102.646 778.828 115.727 779.081 119.318C779.109 119.717 730.325 123.556 670.739 127.755L562.341 135.394L562.06 131.404C561.751 127.015 557.708 122.755 553.111 122.01C551.354 121.732 512.507 124.336 466.763 127.694C387.255 133.698 383.275 134.112 380.783 136.693C379.414 138.126 378.043 141.431 377.68 143.863L377.2 148.441L285.694 154.889C191.394 161.535 187.423 162.082 184.986 167.333C184.301 168.985 185.606 195.091 188.418 234.992C192.795 297.105 193.153 300.288 195.753 303.045L198.505 306.059L293.098 299.794L387.683 293.396L390.963 339.947L394.244 386.498L385.598 387.108C377.352 387.689 376.944 387.584 375.893 384.049C365.884 350.135 336.598 329.075 302.815 331.456C273.022 333.556 248.028 354.431 240.191 383.587C239.152 387.804 238.292 392.676 238.414 394.406L238.63 397.465L202.453 400.014C182.502 401.42 165.44 402.088 164.605 401.612C161.823 400.07 159.614 395.28 159.239 389.96L158.873 384.773L167.994 383.328C179.101 381.61 185.916 377.788 191.642 369.899C201.164 357.065 198.701 339.194 186.067 328.723C180.666 324.158 173.838 322.099 163.256 321.776L154.412 321.463L147.645 225.435C141.112 132.732 140.992 129.131 143.18 126.036L145.482 122.666L217.941 117.159L290.276 111.794L293.101 108.253C297.038 103.431 296.18 96.9423 291.376 93.2708L287.712 90.5885L215.624 95.6685C158.841 99.8037 142.51 101.356 138.613 102.967ZM463.856 207.83L467.933 265.686L438.435 268.166L408.794 270.522L404.67 212L400.546 153.479L430.224 151.655L459.779 149.973L463.856 207.83ZM545.653 202.065L549.777 260.587L519.852 262.696L489.926 264.805L485.802 206.283L481.678 147.761L511.603 145.653L541.529 143.544L545.653 202.065ZM285.235 228.036L288.379 278.339L250.9 281.382L213.279 284.3L209.717 233.759L206.155 183.217L244.061 180.546L281.967 177.875L285.235 228.036ZM382.327 221.194L385.471 271.497L347.992 274.539L310.371 277.458L306.809 226.917L303.248 176.375L341.154 173.704L379.06 171.033L382.327 221.194ZM643.308 203.203L646.87 253.745L608.964 256.416L571.058 259.087L567.496 208.546L563.935 158.004L601.841 155.333L639.747 152.662L643.308 203.203ZM786.952 193.081L790.514 243.622L755.002 246.124C720.421 248.561 719.499 248.76 716.637 251.769C713.033 255.632 713.369 262.291 717.127 266.304L719.879 269.318L755.951 267.177L792.023 265.035L792.426 270.755L792.829 276.474L778.787 278.265C766.597 279.793 763.984 280.645 758.233 284.392C734.983 299.664 743.146 335.847 770.691 339.787C774.339 340.332 781.967 340.462 787.287 340.087L797.262 339.384L797.646 344.838C798.031 350.291 796.515 355.343 793.977 357.26C793.217 357.848 779.688 359.336 763.86 360.451L734.999 362.485L733.779 356.556C733.013 353.269 729.704 346.15 726.508 340.628C706.344 306.762 664.29 296.091 629.882 316.16C614.342 325.141 599.587 347.166 597.224 364.843L596.276 372.261L587.631 372.87L579.119 373.47L575.838 326.919L572.558 280.368L632.276 276.159C689.734 272.11 691.985 271.818 695.132 269.056C699.278 265.289 699.995 260.293 697.264 255.674C694.257 250.94 692.623 250.52 679.323 251.458L668.15 252.245L664.589 201.704L661.027 151.162L722.209 146.851L783.39 142.539L786.952 193.081ZM554.464 327.089L557.651 372.31L487.159 377.277L416.667 382.245L413.48 337.024L410.293 291.803L480.785 286.835L551.277 281.867L554.464 327.089ZM172.552 345.581C176.149 349.204 176.695 355.047 173.594 358.473C172.368 360.03 169.222 360.92 164.434 361.257L157.252 361.764L156.643 353.118L156.034 344.473L163.083 343.976C168.27 343.611 170.844 344.098 172.552 345.581ZM795.06 308.129L795.669 316.774L783.166 317.655C771.595 318.47 770.379 318.289 768.33 315.76C765.113 311.843 765.07 307.435 768.037 304.018C770.139 301.598 772.239 301.049 782.48 300.327L794.45 299.483L795.06 308.129ZM324.441 355.729C346.682 364.053 359.968 387.577 355.14 410.106C347.306 446.881 304.515 461.792 276.191 437.323C254.275 418.417 254.479 383.382 276.669 364.442C289.922 353.35 308.659 349.891 324.441 355.729ZM683.465 331.097C694.043 335.163 703.288 343.066 708.485 352.324C711.994 358.492 712.581 361.124 713.396 372.696C714.249 384.799 713.981 386.689 710.887 393.991C698.643 423.191 662.183 433.112 637.189 414.155C632.243 410.36 628.172 405.702 624.824 399.923C620.272 392.224 619.732 390.257 618.964 379.35C618.233 368.976 618.577 366.279 621.282 359.137C626.587 345.264 638.101 334.16 651.813 329.585C660.442 326.838 674.121 327.478 683.465 331.097Z" fill="white"/>
<path d="M295.822 372.583C289.73 375.284 282.123 383.038 279.6 388.964C272.973 404.936 280.261 423.001 296.243 429.761C303.545 432.856 315.933 432.25 322.349 428.456C334.401 421.191 340.702 408.182 338.339 395.517C334.568 376.134 313.451 364.791 295.822 372.583ZM311.117 392.356C318.629 394.634 319.082 406.765 311.775 409.285C304.99 411.635 299.559 408.542 299.1 402.025C298.762 397.237 299.581 395.575 303.155 393.185C306.349 391.088 306.748 391.06 311.117 392.356Z" fill="white"/>
<path d="M656.082 346.527C642.549 351.757 634.719 363.938 635.599 378.312C637.228 403.326 667.767 415.609 686.772 398.899C699.979 387.141 700.436 365.188 687.566 353.263C679.556 345.808 665.718 342.907 656.082 346.527ZM671.526 368.428C678.826 373.394 675.966 384.021 667.188 384.64C654.287 385.549 653.43 367.699 666.284 366.124C667.073 365.935 669.418 366.973 671.526 368.428Z" fill="white"/>
<rect x="681.959" y="183.517" width="200" height="20" rx="10" fill="#EE9F2E"/>
<rect x="766.959" y="116.517" width="200" height="20" rx="10" fill="#EE9F2E"/>
<rect x="492.959" y="17.5175" width="258" height="20" rx="10" fill="#EE9F2E"/>
<rect x="392.959" y="291.517" width="258" height="20" rx="10" fill="#EE9F2E"/>
</g>
<defs>
<clipPath id="clip0_5_13">
<rect width="964" height="438" fill="white" transform="translate(0.439758 35.4664) rotate(-2.05987)"/>
</clipPath>
</defs>
</svg>
