<svg width="970" height="450" viewBox="0 0 970 450" fill="none" xmlns="http://www.w3.org/2000/svg">
<g clip-path="url(#clip0_5_42)">
<path d="M145.649 60.9356C137.619 63.7842 131.292 69.451 127.746 76.8805L124.472 83.913L123.268 222.975C122.328 349.639 122.325 362.573 124.42 366.195C127.427 371.827 132.969 377.353 139.334 380.753C144.239 383.472 147.036 383.768 183.293 384.818L221.817 385.893L223.361 391.243C230.298 416.117 253.551 436.498 279.775 440.642C313.321 445.93 346.875 425.217 356.681 393.186L358.75 386.674L469.811 387.848L580.871 389.023L582.412 394.639C587.296 411.892 601.644 429.511 616.896 437.273C649.789 453.889 686.959 444.281 707.816 413.833C710.795 409.464 714.202 402.567 715.58 398.314L717.927 390.739L749.264 390.537C778.2 390.443 781.003 390.206 785.964 387.591C792.266 384.325 798.057 378.919 801.182 373.352C803.354 369.774 803.604 358.71 804.746 250.716L806.001 132.056L803.168 122.559C795.95 99.0142 776.694 78.9428 752.523 69.7534L742.695 66.0493L533.778 63.44L324.992 60.9654L321.361 63.8605C316.653 67.8109 316.317 74.3411 320.536 78.9193L323.567 82.2848L525.689 84.4223C656.482 85.8054 730.738 87.124 736.196 87.9818C748.441 90.1114 758.517 95.5515 767.618 104.982C774.082 111.584 782.736 125.409 782.698 129.009C782.694 129.409 733.759 129.292 674.029 128.66L565.369 127.511L565.411 123.511C565.458 119.111 561.772 114.539 557.251 113.424C555.522 113.006 516.592 112.461 470.726 112.109C390.993 111.666 386.992 111.757 384.3 114.129C382.819 115.447 381.186 118.629 380.627 121.024L379.779 125.548L288.051 124.578C193.523 123.579 189.52 123.803 186.667 128.84C185.85 130.431 185.04 156.558 184.617 196.555C183.959 258.818 184.058 262.02 186.427 264.978L188.927 268.205L283.717 269.607L378.509 270.876L378.015 317.54L377.522 364.204L368.856 364.113C360.59 364.025 360.191 363.888 359.429 360.28C352.195 325.668 324.707 302.309 290.842 301.951C260.977 301.635 234.377 320.422 224.209 348.849C222.832 352.968 221.581 357.755 221.563 359.488L221.531 362.555L185.266 362.171C165.267 361.96 148.207 361.246 147.413 360.704C144.765 358.943 142.95 353.99 143.007 348.657L143.062 343.457L152.27 342.755C163.479 341.94 170.58 338.681 176.926 331.281C187.453 319.259 186.444 301.247 174.698 289.789C169.683 284.802 163.044 282.199 152.522 281.021L143.733 279.994L144.751 183.733C145.733 90.8049 145.905 87.2065 148.336 84.2987L150.903 81.1256L223.57 81.4941L296.102 81.9944L299.203 78.6937C303.518 74.2057 303.187 67.6685 298.696 63.6208L295.261 60.651L222.998 59.8868C166.066 59.4181 149.663 59.6447 145.649 60.9356ZM461.35 191.748L460.737 249.745L431.134 249.832L401.4 249.784L402.02 191.121L402.641 132.457L432.37 133.038L461.964 133.751L461.35 191.748ZM543.346 192.615L542.725 251.278L512.727 250.961L482.729 250.644L483.349 191.981L483.969 133.317L513.968 133.634L543.966 133.952L543.346 192.615ZM281.68 197.448L280.747 247.841L243.145 247.844L205.411 247.711L205.947 197.048L206.482 146.384L244.48 146.786L282.478 147.187L281.68 197.448ZM379.008 198.478L378.075 248.871L340.473 248.873L302.739 248.741L303.275 198.077L303.81 147.413L341.808 147.815L379.806 148.217L379.008 198.478ZM640.589 201.644L640.053 252.308L602.055 251.906L564.058 251.504L564.593 200.84L565.129 150.176L603.127 150.578L641.125 150.98L640.589 201.644ZM784.581 203.167L784.045 253.83L748.447 253.454C713.782 253.087 712.848 253.211 709.752 255.978C705.847 259.537 705.643 266.202 709.065 270.505L711.564 273.732L747.691 274.514L783.818 275.296L783.758 281.029L783.697 286.762L769.556 287.412C757.283 287.949 754.609 288.588 748.574 291.857C724.165 305.2 729.377 341.924 756.514 348.078C760.105 348.916 767.698 349.663 773.031 349.719L783.03 349.825L782.972 355.291C782.914 360.758 780.996 365.671 778.311 367.376C777.505 367.901 763.9 368.29 748.035 368.123L719.103 367.817L718.366 361.809C717.868 358.47 715.146 351.107 712.407 345.345C695.047 309.959 653.993 295.924 618.075 313.145C601.86 320.841 585.373 341.601 581.588 359.029L580.044 366.346L571.378 366.254L562.845 366.164L563.338 319.5L563.832 272.836L623.695 273.469C681.292 274.078 683.56 273.969 686.92 271.471C691.356 268.051 692.475 263.129 690.126 258.304C687.512 253.343 685.917 252.793 672.585 252.652L661.385 252.533L661.921 201.869L662.457 151.206L723.787 151.854L785.117 152.503L784.581 203.167ZM542.02 317.941L541.541 363.272L470.878 362.525L400.216 361.778L400.695 316.447L401.174 271.116L471.837 271.863L542.5 272.611L542.02 317.941ZM159.864 305.5C163.156 309.401 163.227 315.269 159.861 318.434C158.512 319.886 155.305 320.519 150.505 320.468L143.306 320.392L143.397 311.726L143.489 303.06L150.555 303.134C155.755 303.189 158.281 303.883 159.864 305.5ZM783.361 318.493L783.27 327.16L770.737 327.027C759.138 326.904 757.941 326.625 756.102 323.939C753.213 319.775 753.526 315.378 756.76 312.212C759.05 309.969 761.188 309.592 771.454 309.7L783.453 309.827L783.361 318.493ZM310.436 327.893C331.93 337.988 343.271 362.509 336.638 384.573C325.856 420.595 282 431.998 255.747 405.319C235.431 384.703 238.467 349.8 262.115 332.716C276.222 322.731 295.176 320.798 310.436 327.893ZM670.275 332.365C680.49 337.273 689.066 345.898 693.498 355.545C696.497 361.977 696.869 364.648 696.746 376.247C696.618 388.38 696.198 390.242 692.523 397.271C677.959 425.385 640.816 432.326 617.436 411.411C612.814 407.228 609.133 402.256 606.263 396.225C602.348 388.183 601.969 386.179 602.084 375.246C602.194 364.847 602.756 362.186 606.029 355.287C612.438 341.887 624.812 331.751 638.85 328.299C647.672 326.259 661.254 328.003 670.275 332.365Z" fill="white"/>
<path d="M280.547 342.378C274.257 344.578 266.048 351.692 263.054 357.394C255.158 372.778 260.962 391.374 276.344 399.403C283.372 403.078 295.769 403.476 302.47 400.213C315.071 393.946 322.403 381.489 321.072 368.675C318.879 349.05 298.749 336.037 280.547 342.378ZM294.193 363.323C301.497 366.201 300.968 378.329 293.481 380.25C286.528 382.043 281.365 378.522 281.434 371.989C281.485 367.189 282.435 365.599 286.191 363.505C289.544 361.674 289.944 361.678 294.193 363.323Z" fill="white"/>
<path d="M641.734 345.531C627.823 349.651 619.034 361.158 618.749 375.556C618.35 400.62 647.797 415.332 668.091 400.212C682.204 389.561 684.435 367.717 672.571 354.791C665.19 346.712 651.631 342.702 641.734 345.531ZM655.358 368.609C662.233 374.149 658.523 384.51 649.724 384.417C636.791 384.281 637.38 366.419 650.319 365.889C651.121 365.764 653.375 366.988 655.358 368.609Z" fill="white"/>
<rect x="72.0231" y="220.633" width="200" height="20" rx="10" transform="rotate(0.605874 72.0231 220.633)" fill="#EE9F2E"/>
<rect x="185.926" y="135.832" width="200" height="20" rx="10" transform="rotate(0.605874 185.926 135.832)" fill="#EE9F2E"/>
<rect x="-54.6539" y="0.280762" width="258" height="20" rx="10" transform="rotate(0.605874 -54.6539 0.280762)" fill="#EE9F2E"/>
<rect x="-159.704" y="288.186" width="258" height="20" rx="10" transform="rotate(0.605874 -159.704 288.186)" fill="#EE9F2E"/>
</g>
<defs>
<clipPath id="clip0_5_42">
<rect width="964" height="438" fill="white" transform="translate(5.34271 0.915405) rotate(0.605874)"/>
</clipPath>
</defs>
</svg>
