<svg width="986" height="486" viewBox="0 0 986 486" fill="none" xmlns="http://www.w3.org/2000/svg">
<g clip-path="url(#clip0_5_22)">
<path d="M160.135 66.1465C152.002 68.6876 145.464 74.1096 141.639 81.3989L138.099 88.3017L131.607 227.217C125.85 353.753 125.355 366.678 127.31 370.377C130.101 376.12 135.429 381.852 141.659 385.493C146.457 388.396 149.241 388.798 185.432 391.227L223.888 393.766L225.227 399.17C231.213 424.291 253.673 445.541 279.721 450.68C313.042 457.24 347.359 437.819 358.377 406.183L360.692 399.755L471.627 405.153L582.563 410.551L583.889 416.222C588.113 433.648 601.78 451.8 616.726 460.137C648.963 477.991 686.472 469.804 708.472 440.172C711.615 435.92 715.282 429.157 716.821 424.96L719.454 417.479L750.777 418.469C779.695 419.476 782.505 419.346 787.562 416.922C793.983 413.897 799.975 408.715 803.311 403.271C805.616 399.779 806.287 388.732 811.536 280.86L817.304 162.333L814.834 152.735C808.517 128.933 790.039 108.144 766.235 98.0417L756.555 93.9664L547.888 83.4124L339.347 72.998L335.609 75.7529C330.754 79.5214 330.17 86.034 334.211 90.7693L337.112 94.2478L539.007 104.072C669.652 110.429 743.805 114.571 749.226 115.636C761.381 118.23 771.243 124.049 779.979 133.819C786.187 140.662 794.309 154.807 794.134 158.402C794.115 158.802 745.22 156.823 685.557 153.92L577.019 148.639L577.213 144.643C577.427 140.249 573.918 135.539 569.442 134.253C567.73 133.77 528.85 131.744 483.031 129.648C403.372 126.173 399.37 126.111 396.59 128.379C395.06 129.639 393.307 132.758 392.657 135.129L391.638 139.618L300.013 135.16C205.592 130.565 201.583 130.637 198.54 135.562C197.664 137.121 195.861 163.198 193.917 203.15C190.89 265.343 190.868 268.546 193.123 271.593L195.497 274.912L290.166 279.919L384.841 284.793L382.573 331.404L380.305 378.016L371.648 377.595C363.392 377.193 362.998 377.04 362.374 373.405C356.462 338.544 329.882 314.156 296.056 312.51C266.224 311.059 238.929 328.82 227.687 356.84C226.154 360.904 224.722 365.64 224.638 367.371L224.489 370.434L188.265 368.671C168.289 367.699 151.268 366.337 150.495 365.765C147.916 363.905 146.291 358.886 146.551 353.559L146.803 348.365L156.031 348.014C167.263 347.626 174.484 344.64 181.106 337.486C192.083 325.873 191.76 307.836 180.458 295.939C175.637 290.765 169.101 287.911 158.632 286.334L149.888 284.974L154.567 188.821C159.083 95.9973 159.391 92.4081 161.931 89.5949L164.617 86.5218L237.217 89.654L309.678 92.9129L312.903 89.7325C317.385 85.4119 317.303 78.8668 312.969 74.6512L309.649 71.5529L237.468 68.0406C180.595 65.4067 164.195 65.0092 160.135 66.1465ZM470.632 208.873L467.813 266.804L438.229 265.765L408.518 264.586L411.369 205.989L414.22 147.392L443.906 149.103L473.451 150.941L470.632 208.873ZM552.535 212.858L549.684 271.455L519.719 269.997L489.755 268.539L492.606 209.942L495.458 151.344L525.422 152.803L555.387 154.261L552.535 212.858ZM290.875 207.735L288.026 258.056L250.451 256.628L212.749 255.06L215.212 204.453L217.674 153.847L255.629 155.694L293.584 157.54L290.875 207.735ZM388.093 212.465L385.244 262.786L347.669 261.358L309.968 259.791L312.43 209.184L314.893 158.577L352.848 160.424L390.803 162.271L388.093 212.465ZM649.365 225.579L646.902 276.186L608.947 274.339L570.992 272.492L573.455 221.885L575.917 171.279L613.872 173.125L651.827 174.972L649.365 225.579ZM793.195 232.578L790.732 283.184L755.174 281.454C720.549 279.769 719.61 279.857 716.411 282.505C712.374 285.913 711.916 292.565 715.172 296.995L717.546 300.314L753.618 302.47L789.689 304.626L789.41 310.352L789.132 316.079L774.976 316.191C762.691 316.261 759.996 316.797 753.841 319.835C728.942 332.239 732.753 369.135 759.636 376.317C763.193 377.291 770.751 378.326 776.078 378.585L786.066 379.071L785.801 384.531C785.535 389.991 783.431 394.828 780.683 396.43C779.858 396.924 766.248 396.795 750.4 396.024L721.501 394.618L720.994 388.586C720.623 385.231 718.183 377.77 715.665 371.908C699.663 335.887 659.173 320.301 622.626 336.143C606.13 343.217 588.865 363.335 584.42 380.606L582.599 387.859L573.942 387.438L565.419 387.023L567.687 340.412L569.955 293.8L629.751 296.71C687.283 299.509 689.554 299.486 693.006 297.118C697.569 293.869 698.875 288.994 696.711 284.083C694.287 279.025 692.715 278.415 679.397 277.767L668.21 277.223L670.673 226.616L673.135 176.009L734.396 178.99L795.657 181.971L793.195 232.578ZM546.444 338.043L544.241 383.323L473.657 379.888L403.074 376.454L405.278 331.174L407.481 285.894L478.064 289.329L548.647 292.763L546.444 338.043ZM165.037 311.074C168.179 315.098 168.027 320.965 164.542 323.999C163.139 325.399 159.91 325.909 155.116 325.676L147.924 325.326L148.346 316.67L148.767 308.013L155.825 308.357C161.019 308.609 163.517 309.398 165.037 311.074ZM787.589 347.775L787.168 356.431L774.65 355.822C763.063 355.258 761.878 354.934 760.143 352.179C757.414 347.908 757.894 343.526 761.246 340.486C763.62 338.332 765.77 338.036 776.025 338.535L788.01 339.118L787.589 347.775ZM314.648 339.179C335.743 350.084 346.143 375.019 338.675 396.815C326.531 432.4 282.273 442.127 257.054 414.469C237.537 393.095 241.898 358.332 266.179 342.16C280.655 332.719 299.67 331.508 314.648 339.179ZM674.057 357.335C684.078 362.628 692.32 371.573 696.381 381.382C699.133 387.923 699.403 390.606 698.84 402.192C698.25 414.311 697.76 416.156 693.82 423.04C678.197 450.58 640.818 456.103 618.25 434.313C613.79 429.958 610.3 424.849 607.662 418.714C604.056 410.529 603.753 408.512 604.285 397.591C604.79 387.204 605.453 384.566 608.986 377.796C615.9 364.65 628.651 354.992 642.809 352.077C651.702 350.373 665.209 352.633 674.057 357.335Z" fill="white"/>
<path d="M284.231 352.516C277.861 354.476 269.388 361.272 266.179 366.856C257.703 381.928 262.795 400.731 277.861 409.34C284.745 413.28 297.117 414.149 303.938 411.143C316.767 405.36 324.568 393.191 323.725 380.335C322.281 360.642 302.66 346.872 284.231 352.516ZM297.07 373.966C304.259 377.119 303.269 389.218 295.714 390.853C288.698 392.38 283.673 388.665 283.991 382.14C284.224 377.345 285.234 375.792 289.066 373.843C292.487 372.141 292.886 372.16 297.07 373.966Z" fill="white"/>
<path d="M645.036 369.405C630.979 372.993 621.758 384.158 620.925 398.535C619.574 423.565 648.439 439.387 669.294 425.05C683.802 414.943 686.863 393.2 675.499 379.831C668.43 371.478 655.034 366.955 645.036 369.405ZM657.772 392.985C664.431 398.783 660.33 408.995 651.541 408.568C638.622 407.939 639.89 390.113 652.841 390.076C653.646 389.981 655.852 391.29 657.772 392.985Z" fill="white"/>
<rect x="578.341" y="226.583" width="200" height="20" rx="10" fill="#EE9F2E"/>
<rect x="633.341" y="126.583" width="200" height="20" rx="10" fill="#EE9F2E"/>
<rect x="367.341" y="27.5827" width="258" height="20" rx="10" fill="#EE9F2E"/>
<rect x="303.341" y="304.583" width="258" height="20" rx="10" fill="#EE9F2E"/>
</g>
<defs>
<clipPath id="clip0_5_22">
<rect width="964" height="438" fill="white" transform="translate(22.2134 0.832748) rotate(2.78577)"/>
</clipPath>
</defs>
</svg>
