<svg width="998" height="518" viewBox="0 0 998 518" fill="none" xmlns="http://www.w3.org/2000/svg">
<g clip-path="url(#clip0_5_23)">
<path d="M172.37 70.8809C164.155 73.1427 157.435 78.3382 153.363 85.4927L149.59 92.2705L138.357 230.883C128.281 357.149 127.345 370.049 129.173 373.813C131.766 379.648 136.895 385.559 142.998 389.41C147.694 392.475 150.462 392.972 186.549 396.636L224.896 400.486L226.049 405.934C231.174 431.244 252.895 453.249 278.752 459.274C311.829 466.969 346.79 448.731 358.882 417.49L361.415 411.144L472.101 420.328L582.788 429.512L583.919 435.225C587.546 452.785 600.586 471.394 615.238 480.236C646.846 499.181 684.613 492.28 707.612 463.416C710.899 459.274 714.794 452.64 716.476 448.498L719.363 441.112L750.633 443.171C779.5 445.165 782.313 445.131 787.45 442.881C793.971 440.077 800.136 435.103 803.656 429.776C806.079 426.365 807.127 415.347 816.058 307.717L825.87 189.457L823.729 179.78C818.229 155.776 800.471 134.368 777.026 123.458L767.491 119.055L559.306 101.38L351.243 83.8493L347.413 86.4749C342.432 90.0753 341.626 96.5642 345.503 101.435L348.284 105.01L549.725 121.724C680.077 132.54 754.045 139.212 759.427 140.461C771.486 143.469 781.144 149.622 789.541 159.684C795.511 166.735 803.146 181.149 802.848 184.737C802.815 185.135 754.016 181.488 694.487 176.549L586.193 167.563L586.523 163.577C586.887 159.192 583.542 154.366 579.112 152.928C577.418 152.386 538.629 149.034 492.908 145.374C413.415 139.18 409.417 138.982 406.561 141.153C404.989 142.36 403.13 145.417 402.4 147.765L401.228 152.216L309.809 144.631C215.599 136.815 211.591 136.75 208.382 141.567C207.452 143.096 204.76 169.095 201.452 208.959C196.304 271.012 196.172 274.212 198.321 277.334L200.581 280.732L295.023 288.97L389.477 297.074L385.618 343.581L381.759 390.088L373.122 389.371C364.884 388.688 364.496 388.522 363.997 384.868C359.278 349.824 333.547 324.544 299.796 321.743C270.032 319.274 242.146 336.092 229.954 363.712C228.283 367.721 226.69 372.405 226.547 374.133L226.293 377.189L190.151 374.19C170.219 372.536 153.255 370.593 152.502 369.996C149.988 368.048 148.536 362.977 148.977 357.662L149.407 352.48L158.641 352.443C169.88 352.439 177.198 349.702 184.061 342.779C195.428 331.547 195.721 313.509 184.832 301.234C180.191 295.898 173.756 292.822 163.347 290.888L154.654 289.23L162.615 193.293C170.299 100.678 170.729 97.1017 173.364 94.3769L176.153 91.3973L248.604 97.0073L320.911 102.739L324.243 99.6708C328.87 95.5058 329.011 88.9618 324.824 84.6006L321.612 81.3907L249.593 75.4151C192.843 70.8403 176.466 69.8829 172.37 70.8809ZM477.811 224.129L473.015 281.93L443.483 279.881L413.83 277.688L418.681 219.222L423.532 160.757L453.141 163.481L482.607 166.327L477.811 224.129ZM559.53 230.909L554.679 289.375L524.782 286.894L494.885 284.413L499.736 225.948L504.587 167.482L534.484 169.963L564.381 172.443L559.53 230.909ZM298.198 216.852L293.631 267.046L256.127 264.336L218.501 261.481L222.69 210.988L226.88 160.495L264.75 163.637L302.62 166.779L298.198 216.852ZM395.198 224.9L390.631 275.094L353.127 272.384L315.501 269.53L319.69 219.037L323.88 168.543L361.75 171.685L399.62 174.828L395.198 224.9ZM655.869 246.93L651.679 297.423L613.809 294.281L575.939 291.139L580.129 240.646L584.318 190.152L622.188 193.294L660.058 196.437L655.869 246.93ZM799.376 258.837L795.186 309.33L759.708 306.386C725.16 303.52 724.219 303.575 720.931 306.112C716.78 309.38 716.096 316.013 719.198 320.552L721.458 323.95L757.434 327.337L793.411 330.723L792.937 336.437L792.463 342.15L778.312 341.779C766.032 341.429 763.319 341.873 757.064 344.699C731.756 356.246 734.305 393.25 760.927 401.346C764.448 402.44 771.967 403.733 777.282 404.174L787.248 405.001L786.796 410.449C786.344 415.897 784.076 420.659 781.275 422.166C780.434 422.631 766.836 422.038 751.024 420.726L722.189 418.334L721.888 412.288C721.632 408.922 719.448 401.383 717.132 395.437C702.37 358.892 662.436 341.931 625.369 356.516C608.641 363.022 590.699 382.539 585.667 399.648L583.599 406.835L574.962 406.118L566.458 405.413L570.317 358.906L574.175 312.399L633.837 317.349C691.24 322.112 693.51 322.167 697.041 319.917C701.713 316.827 703.184 311.998 701.189 307.016C698.939 301.879 697.389 301.216 684.101 300.113L672.939 299.187L677.129 248.694L681.318 198.201L742.442 203.272L803.565 208.344L799.376 258.837ZM549.167 355.813L545.418 400.991L474.993 395.148L404.569 389.305L408.317 344.127L412.066 298.948L482.49 304.792L552.915 310.635L549.167 355.813ZM168.904 315.833C171.906 319.962 171.554 325.82 167.967 328.733C166.517 330.085 163.273 330.484 158.489 330.087L151.314 329.492L152.031 320.855L152.747 312.218L159.79 312.802C164.972 313.232 167.441 314.106 168.904 315.833ZM789.839 373.775L789.122 382.412L776.632 381.376C765.072 380.417 763.898 380.052 762.258 377.24C759.676 372.878 760.306 368.515 763.76 365.591C766.206 363.519 768.365 363.297 778.597 364.146L790.556 365.138L789.839 373.775ZM317.467 349.031C338.177 360.65 347.72 385.926 339.512 407.454C326.16 442.604 281.595 450.814 257.335 422.31C238.559 400.282 244.105 365.689 268.925 350.355C283.715 341.414 302.76 340.854 317.467 349.031ZM676.046 379.452C685.881 385.085 693.812 394.305 697.536 404.247C700.063 410.879 700.242 413.57 699.282 425.13C698.279 437.222 697.726 439.049 693.554 445.794C676.999 472.784 639.453 477.027 617.643 454.48C613.334 449.975 610.021 444.75 607.594 438.528C604.269 430.224 604.036 428.198 604.94 417.302C605.8 406.938 606.552 404.324 610.314 397.679C617.673 384.777 630.747 375.56 644.996 373.13C653.943 371.731 667.364 374.45 676.046 379.452Z" fill="white"/>
<path d="M286.612 361.322C280.179 363.063 271.479 369.565 268.081 375.037C259.095 389.811 263.542 408.777 278.306 417.895C285.05 422.067 297.386 423.359 304.305 420.588C317.325 415.246 325.537 403.351 325.133 390.474C324.362 370.742 305.223 356.31 286.612 361.322ZM298.711 383.197C305.788 386.594 304.386 398.653 296.78 400.029C289.716 401.315 284.82 397.431 285.36 390.92C285.757 386.136 286.82 384.619 290.717 382.802C294.193 381.217 294.591 381.25 298.711 383.197Z" fill="white"/>
<path d="M646.63 390.524C632.458 393.63 622.862 404.473 621.538 418.813C619.333 443.783 647.641 460.581 668.973 446.965C683.818 437.36 687.619 415.733 676.719 401.985C669.939 393.395 656.706 388.417 646.63 390.524ZM658.553 414.526C665.011 420.547 660.563 430.614 651.793 429.886C638.904 428.817 640.78 411.044 653.724 411.449C654.532 411.382 656.692 412.766 658.553 414.526Z" fill="white"/>
<rect x="483.519" y="257.732" width="200" height="20" rx="10" fill="#EE9F2E"/>
<rect x="583.519" y="148.732" width="200" height="20" rx="10" fill="#EE9F2E"/>
<rect x="213.519" y="324.732" width="258" height="20" rx="10" fill="#EE9F2E"/>
<rect x="246.519" y="39.7316" width="258" height="20" rx="10" fill="#EE9F2E"/>
</g>
<defs>
<clipPath id="clip0_5_23">
<rect width="964" height="438" fill="white" transform="translate(36.7592 0.894592) rotate(4.74306)"/>
</clipPath>
</defs>
</svg>
